<svg width="223" height="41" viewBox="0 0 223 41" fill="none" xmlns="http://www.w3.org/2000/svg">
<path fill-rule="evenodd" clip-rule="evenodd" d="M222.444 35.5578C222.444 38.3192 220.205 40.5578 217.444 40.5578H5.00341C2.24199 40.5578 0.00341797 38.3192 0.00341797 35.5578V5.56122C0.00341797 2.79979 2.24199 0.561218 5.00342 0.561218H217.444C220.205 0.561218 222.444 2.79979 222.444 5.56122V35.5578Z" fill="#FEFEFE"/>
<mask id="mask0_1_172" style="mask-type:alpha" maskUnits="userSpaceOnUse" x="0" y="0" width="223" height="41">
<path d="M222.444 35.5578C222.444 38.3192 220.205 40.5578 217.444 40.5578H5.00341C2.24199 40.5578 0.00341797 38.3192 0.00341797 35.5578V5.56122C0.00341797 2.79979 2.24199 0.561218 5.00342 0.561218H217.444C220.205 0.561218 222.444 2.79979 222.444 5.56122V35.5578Z" fill="#FEFEFE"/>
</mask>
<g mask="url(#mask0_1_172)">
<path fill-rule="evenodd" clip-rule="evenodd" d="M211.68 25.9192C210.257 27.4064 208.036 28.1434 205.032 28.1434H204.324V30.783H199.909V28.1434H199.213C196.201 28.1434 193.977 27.4064 192.553 25.9192C191.129 24.4452 190.413 22.6564 190.413 20.5594C190.413 18.449 191.129 16.6636 192.553 15.1897C193.977 13.7158 196.201 12.9755 199.213 12.9755H199.909V10.3258H204.324V12.9755H205.032C208.032 12.9755 210.257 13.7125 211.68 15.1897C213.104 16.6636 213.821 18.4524 213.821 20.5594C213.821 22.6597 213.104 24.4452 211.68 25.9192ZM187.663 21.5543C186.822 22.4152 185.917 22.9881 184.919 23.2795C184.37 23.447 183.827 23.5475 183.298 23.591C182.768 23.6313 182.309 23.6513 181.917 23.6513H177.71V30.083H173.305V11.381H182.021C184.681 11.381 186.487 11.994 187.455 13.21C188.419 14.4259 188.908 15.8295 188.908 17.4274C188.908 19.31 188.484 20.68 187.663 21.551V21.5543ZM154.543 38.0923H7.50355C4.71987 38.0923 2.46546 30.237 2.46546 20.5561C2.46546 10.8652 4.71987 3.0199 7.50355 3.0199H154.543C157.326 3.0199 159.581 10.8652 159.581 20.5561C159.581 30.237 157.326 38.0822 154.543 38.0923ZM0 40.5545H222.44V0.5578H0V40.5545Z" fill="#E32136"/>
</g>
<path fill-rule="evenodd" clip-rule="evenodd" d="M17.1978 23.1153L19.5561 16.2282L21.8943 23.1153H17.1978ZM17.3954 11.5117L10.6322 29.557H15.131L16.2733 26.1804H22.8188L23.9946 29.557H28.4933L21.6999 11.5117H17.3988H17.3954Z" fill="#5C5C5B"/>
<path fill-rule="evenodd" clip-rule="evenodd" d="M40.757 25.3898C40.4756 25.7014 40.1741 25.9191 39.8425 26.0531C39.6549 26.1368 39.4707 26.187 39.3032 26.2105C39.1256 26.2407 38.9816 26.2507 38.8476 26.2507H34.4226V21.9396H38.3586C39.0654 21.9396 39.7085 22.0634 40.3014 22.3047C40.8943 22.5525 41.1857 23.1254 41.1857 24.0097C41.1857 24.6127 41.0519 25.0682 40.7603 25.3932L40.757 25.3898ZM34.4192 14.8145H38.3451C38.4088 14.8145 38.4591 14.8245 38.5126 14.8346C38.9883 14.8748 39.4372 15.0323 39.8425 15.3103C40.2479 15.5917 40.4555 16.0808 40.4555 16.7641C40.4555 17.3235 40.2881 17.7489 39.9565 18.0505C39.6247 18.3419 39.2496 18.5161 38.8443 18.5797C38.7706 18.5998 38.6902 18.6099 38.6064 18.6199C38.5227 18.6299 38.4423 18.6299 38.3586 18.6299H34.4226V14.8078L34.4192 14.8145ZM42.2309 19.9766C42.1673 19.9531 42.0969 19.9464 42.0333 19.933C41.9697 19.923 41.9093 19.9129 41.8357 19.9028V19.8526C42.0031 19.8024 42.2008 19.7388 42.4286 19.6449C42.6564 19.5511 42.8875 19.4272 43.1253 19.2697C43.5507 18.9883 43.936 18.6065 44.2877 18.094C44.6294 17.5949 44.807 16.9316 44.807 16.1008C44.807 15.873 44.7868 15.5715 44.7433 15.1863C44.703 14.8145 44.5859 14.4092 44.3916 13.9938C44.1001 13.3707 43.5709 12.798 42.8038 12.2787C42.0366 11.7695 40.8408 11.5083 39.2396 11.5083H30.1582V29.5536H38.7706C39.1458 29.5536 39.6014 29.5436 40.1205 29.5234C40.6499 29.49 41.1925 29.4196 41.7419 29.2823C42.73 29.0645 43.6312 28.5989 44.4519 27.9022C45.2726 27.2055 45.6779 26.0732 45.6779 24.4955C45.6779 23.1354 45.3228 22.097 44.5992 21.3801C43.8823 20.6733 43.0918 20.1977 42.2309 19.9766Z" fill="#5C5C5B"/>
<path fill-rule="evenodd" clip-rule="evenodd" d="M47.2723 15.0121H52.7158V29.557H56.9735V15.0121H62.4269V11.5117H47.2723V15.0121Z" fill="#5C5C5B"/>
<path fill-rule="evenodd" clip-rule="evenodd" d="M77.4607 21.7118C77.4306 22.1808 77.3469 22.6363 77.2095 23.1154C76.9817 23.9662 76.5664 24.7567 75.9332 25.4836C75.3101 26.2005 74.332 26.5623 72.982 26.5623C71.391 26.5623 70.2821 26.0632 69.6456 25.0649C69.0126 24.0667 68.6373 22.9646 68.5235 21.7721C68.4933 21.5543 68.4699 21.3567 68.4699 21.1491C68.4599 20.9514 68.4497 20.7437 68.4497 20.526C68.4497 20.3686 68.4599 20.2044 68.4699 20.0268C68.4699 19.8593 68.4799 19.6852 68.5 19.5077C68.5939 18.2615 68.959 17.1058 69.582 16.0674C70.2051 15.019 71.3374 14.4997 72.9787 14.4997C74.3387 14.4997 75.337 14.8648 75.9701 15.5917C76.6032 16.3186 77.0286 17.1293 77.2397 18.0003C77.3536 18.4659 77.4273 18.9248 77.4574 19.3603C77.4876 19.7957 77.4976 20.191 77.4976 20.5226C77.4976 20.8542 77.4876 21.2496 77.4574 21.7085L77.4607 21.7118ZM82.0834 19.635C81.9394 17.4743 81.1891 15.5013 79.8391 13.6924C78.4992 11.8935 76.2146 10.9925 72.982 10.9925C69.8031 10.9925 67.5286 11.8868 66.1686 13.6622C64.8086 15.4377 64.0481 17.3905 63.9041 19.5311C63.8941 19.6986 63.8841 19.8627 63.8739 20.0302C63.8639 20.2077 63.8639 20.3719 63.8639 20.5293C63.8639 22.9814 64.5606 25.1822 65.9408 27.1251C67.3243 29.068 69.6691 30.0561 72.9854 30.0663V30.0428C76.2146 30.0428 78.5025 29.1518 79.8424 27.3528C81.1924 25.5641 81.9427 23.591 82.0868 21.4305C82.0868 21.2864 82.0868 21.1389 82.0969 20.9849C82.1069 20.8275 82.1069 20.6733 82.1069 20.5293C82.1069 20.3853 82.1069 20.2379 82.0969 20.0838C82.0868 19.9297 82.0868 19.7824 82.0868 19.6383L82.0834 19.635Z" fill="#5C5C5B"/>
<path fill-rule="evenodd" clip-rule="evenodd" d="M96.9598 23.8624C96.8862 24.1538 96.7622 24.4553 96.6082 24.7669C96.3704 25.2358 95.9851 25.6612 95.4859 26.0465C94.9868 26.4317 94.2599 26.6192 93.3254 26.6192C93.1813 26.6192 92.9 26.5891 92.4846 26.5355C92.0691 26.4752 91.6337 26.3077 91.1546 26.0364C90.5952 25.6947 90.0761 25.1219 89.597 24.3011C89.1314 23.4906 88.8902 22.2947 88.8902 20.7069C88.8902 20.4255 88.9103 20.0202 88.9438 19.4808C88.974 18.9315 89.0778 18.3687 89.2353 17.7858C89.4831 16.9751 89.8885 16.2282 90.4814 15.5415C91.0643 14.8681 91.9553 14.5232 93.1813 14.5232C94.1896 14.5232 94.9466 14.7208 95.4793 15.1059C96.0086 15.5013 96.3737 15.9166 96.5813 16.3722C96.6953 16.6 96.7891 16.8178 96.8427 17.0355C96.9029 17.2532 96.9365 17.4609 96.9565 17.6385H101.134C101.124 17.2733 101.07 16.9015 100.986 16.4962C100.913 16.0908 100.789 15.6855 100.621 15.2802C100.186 14.2016 99.3952 13.2234 98.2428 12.3391C97.0905 11.4581 95.3319 11.0192 92.9871 11.0192C92.6655 11.0192 92.1027 11.0594 91.3021 11.1532C90.5115 11.237 89.6707 11.5083 88.7797 11.9437C87.6575 12.4931 86.6292 13.4512 85.7045 14.8012C84.77 16.1511 84.301 18.1778 84.301 20.8676C84.301 21.3768 84.3311 21.9798 84.4048 22.6966C84.4786 23.4035 84.6427 24.1404 84.904 24.8774C85.3495 26.1972 86.1803 27.3997 87.3962 28.4818C88.6222 29.5738 90.5316 30.113 93.1311 30.113C95.4491 30.113 97.1809 29.6474 98.3366 28.7296C99.489 27.8051 100.29 26.7868 100.725 25.6847C100.903 25.2492 101.037 24.8138 101.13 24.3883C101.234 23.9528 101.295 23.5575 101.328 23.1824H97.1005C97.0805 23.3398 97.0369 23.5675 96.9666 23.8557L96.9598 23.8624Z" fill="#5C5C5B"/>
<path fill-rule="evenodd" clip-rule="evenodd" d="M108.192 21.9932H117.022V18.6803H108.192V15.0121H118.205V11.5117H103.931V29.557H118.455V26.0565H108.192V21.9932Z" fill="#5C5C5B"/>
<path fill-rule="evenodd" clip-rule="evenodd" d="M119.38 15.0121H124.823V29.557H129.082V15.0121H134.535V11.5117H119.38V15.0121Z" fill="#5C5C5B"/>
<path fill-rule="evenodd" clip-rule="evenodd" d="M146.651 25.6076C146.102 25.9091 145.444 26.0532 144.678 26.0532H141.054V21.5543H144.563C145.374 21.5543 146.062 21.7118 146.631 22.0099C147.19 22.3214 147.472 22.9244 147.472 23.8188C147.472 24.6998 147.2 25.3027 146.651 25.6043V25.6076ZM145.549 18.0572H141.05V11.5117H136.803V29.557H145.529C147.669 29.557 149.291 29.0981 150.369 28.1836C151.462 27.2691 152.001 25.8554 152.001 23.9662V23.4972C151.917 22.1372 151.43 20.8911 150.513 19.7488C149.609 18.6166 147.957 18.0572 145.549 18.0572Z" fill="#5C5C5B"/>
<path fill-rule="evenodd" clip-rule="evenodd" d="M183.489 15.5315C182.939 15.1998 182.159 15.0424 181.171 15.0424H177.71V20.0302H181.171C182.096 20.0302 182.852 19.8527 183.434 19.511C184.028 19.1693 184.319 18.4826 184.319 17.4542C184.319 16.4995 184.052 15.853 183.489 15.5315Z" fill="#E32136"/>
<path fill-rule="evenodd" clip-rule="evenodd" d="M196.171 17.5681C195.394 18.285 194.995 19.2832 194.995 20.5595C194.995 22.0334 195.451 23.0852 196.379 23.6982C197.293 24.3113 198.489 24.6127 199.963 24.6127H200.314V16.4995H199.963C198.218 16.4995 196.951 16.8646 196.171 17.5714V17.5681Z" fill="#E32136"/>
<path fill-rule="evenodd" clip-rule="evenodd" d="M204.274 16.4962H203.922V24.6093H204.274C205.771 24.6093 206.964 24.3078 207.879 23.6948C208.783 23.0819 209.239 22.0334 209.239 20.5594C209.239 19.2832 208.843 18.2849 208.062 17.568C207.283 16.8613 206.016 16.4962 204.271 16.4962H204.274Z" fill="#E32136"/>
</svg>
