<svg width="20" height="20" viewBox="0 0 20 20" fill="none" xmlns="http://www.w3.org/2000/svg">
<g clip-path="url(#clip0_57_825)">
<g clip-path="url(#clip1_57_825)">
<path fill-rule="evenodd" clip-rule="evenodd" d="M9.94141 0.00385383C10.5508 -5.24223e-05 10.8438 0.0155726 11.2695 0.0819789C11.5703 0.124948 11.9648 0.19526 12.1484 0.234323C12.332 0.277291 12.6406 0.355416 12.832 0.410104C13.0234 0.468698 13.375 0.589792 13.6133 0.679635C13.8516 0.773385 14.2266 0.941354 14.4531 1.05464C14.6797 1.16792 15.0234 1.35542 15.2148 1.4726C15.4062 1.5937 15.7695 1.83979 16.0156 2.02339C16.2734 2.21479 16.7188 2.60932 17.0547 2.94526C17.3984 3.29292 17.7773 3.7187 17.9727 3.98432C18.1562 4.23042 18.3906 4.56636 18.4922 4.72651C18.5938 4.88667 18.8086 5.2812 18.9648 5.60542C19.125 5.92573 19.3164 6.35932 19.3906 6.56245C19.4648 6.76557 19.5898 7.17182 19.6641 7.46089C19.7422 7.74995 19.8477 8.28901 19.9023 8.65229C19.9766 9.16401 20 9.47261 20 9.99214C20 10.5 19.9766 10.8281 19.9023 11.3398C19.8477 11.707 19.7422 12.25 19.6641 12.539C19.5898 12.8281 19.4648 13.2343 19.3906 13.4375C19.3125 13.6406 19.1328 14.0546 18.9883 14.3554C18.8438 14.6562 18.6133 15.0781 18.4805 15.2929C18.3438 15.5078 18.1094 15.8515 17.957 16.0546C17.8008 16.2578 17.4492 16.6601 17.168 16.9492C16.8906 17.2343 16.4844 17.6132 16.2695 17.7851C16.0547 17.957 15.6953 18.2226 15.4688 18.3671C15.2422 18.5156 14.8398 18.75 14.5703 18.8867C14.3008 19.0234 13.8789 19.2148 13.6328 19.3125C13.3867 19.4062 13 19.539 12.7734 19.6054C12.5469 19.6679 12.1875 19.7578 11.9727 19.8007C11.7578 19.8437 11.4219 19.9023 11.2305 19.9296C11.0234 19.9609 10.5117 19.9804 10 19.9804C9.35938 19.9804 8.99219 19.9609 8.65234 19.9101C8.39453 19.875 7.92969 19.7773 7.61719 19.7031C7.30469 19.625 6.84766 19.4882 6.60156 19.4023C6.35547 19.3125 5.87891 19.1054 5.54688 18.9414C5.21484 18.7734 4.74609 18.5117 4.51172 18.3554C4.27734 18.1992 3.93359 17.9492 3.75 17.8046C3.56641 17.6562 3.21875 17.3398 2.97656 17.0976C2.73047 16.8554 2.40234 16.5 2.24609 16.3085C2.08984 16.1171 1.82422 15.7539 1.66016 15.5078C1.49609 15.2617 1.22266 14.7851 1.05859 14.4531C0.894531 14.121 0.6875 13.6445 0.597656 13.3984C0.511719 13.1523 0.382812 12.7304 0.3125 12.4609C0.246094 12.1914 0.144531 11.6835 0.09375 11.3281C0.0234375 10.8476 0 10.5195 0 10.0312C0 9.66792 0.0273438 9.16011 0.0625 8.89839C0.09375 8.63276 0.15625 8.24214 0.199219 8.02729C0.242188 7.81245 0.332031 7.45307 0.394531 7.22651C0.460938 6.99995 0.59375 6.61323 0.6875 6.36714C0.785156 6.12104 0.976562 5.69917 1.11328 5.42964C1.25 5.16011 1.48438 4.75776 1.63281 4.5312C1.77734 4.30464 2.04297 3.94526 2.21484 3.73042C2.39062 3.51557 2.71094 3.1562 2.93359 2.93354C3.15625 2.71089 3.51562 2.38667 3.73047 2.21479C3.94531 2.03901 4.30469 1.77729 4.53125 1.62885C4.75781 1.48042 5.24219 1.21479 5.60547 1.0351C5.98047 0.847604 6.5 0.628854 6.79688 0.531198C7.08594 0.437448 7.52734 0.312448 7.77344 0.25776C8.01953 0.199166 8.43359 0.121041 8.69141 0.0819789C9.01562 0.0311976 9.40234 0.00776008 9.94141 0.00385383ZM8.71875 0.761667C8.68359 0.777292 8.69531 0.85151 8.76953 1.06635C8.82422 1.2187 8.92188 1.55854 8.98438 1.81635C9.05078 2.07417 9.13672 2.48823 9.17578 2.73432C9.21875 2.98042 9.27344 3.42964 9.29688 3.73042C9.32422 4.05464 9.33984 4.74995 9.33203 5.42964L9.31641 6.58198C9.14844 6.93354 9.04688 7.07026 8.97266 7.12104C8.90625 7.17182 8.71484 7.28511 8.55469 7.37495C8.39453 7.46479 8.10156 7.68354 7.91016 7.85542C7.64453 8.0937 7.51172 8.18354 7.36328 8.22651C7.25391 8.25776 7.12109 8.2812 7.05859 8.2812C7 8.2812 6.74609 8.2187 6.49609 8.14448C6.24219 8.07026 5.69141 7.89839 5.27344 7.76167C4.85547 7.62104 4.31641 7.42573 4.08203 7.32417C3.84766 7.22651 3.48438 7.05464 3.28125 6.94526C3.07812 6.83589 2.76172 6.65229 2.57812 6.53901C2.39453 6.42964 2.10547 6.23823 1.93359 6.11714C1.76172 5.99604 1.61719 5.89839 1.61328 5.9062C1.60938 5.91401 1.55469 6.0312 1.49219 6.17182C1.42969 6.31245 1.3125 6.60151 1.23047 6.81636C1.15234 7.0312 1.03516 7.39839 0.976562 7.63667C0.917969 7.87495 0.855469 8.14058 0.84375 8.23433L0.820312 8.39839C1.37891 8.39839 1.75391 8.41792 2.01172 8.43745C2.26953 8.46089 2.69922 8.51558 2.96875 8.55854C3.23828 8.60542 3.66797 8.69136 3.92578 8.75776C4.18359 8.82026 4.85938 9.0273 5.42969 9.22261C6.03516 9.42573 6.52734 9.61714 6.61719 9.67964C6.69922 9.73823 6.81641 9.87495 6.87891 9.98042C6.9375 10.0898 7.00781 10.289 7.03125 10.4296C7.05469 10.5703 7.10156 10.7734 7.13672 10.8789C7.17188 10.9882 7.26953 11.2343 7.35547 11.4257C7.49609 11.7382 7.50781 11.8007 7.49219 12.0117C7.48047 12.1679 7.44141 12.3046 7.375 12.4218C7.32031 12.5195 7.02344 12.9492 6.71875 13.3789C6.41016 13.8085 6.05469 14.2929 5.92188 14.4531C5.79297 14.6132 5.47656 14.9648 5.21484 15.2304C4.95703 15.496 4.58984 15.8437 4.39453 16.0078C4.19922 16.1679 3.92188 16.3906 3.77344 16.5L3.50391 16.6992C3.89062 17.0507 4.1875 17.2929 4.41406 17.4648C4.64062 17.6328 5 17.875 5.21484 18.0039C5.42969 18.1328 5.61719 18.2421 5.63672 18.2421C5.65234 18.2421 5.68359 18.1601 5.70703 18.0585C5.73047 17.9531 5.84375 17.625 5.96484 17.3242C6.08203 17.0234 6.29687 16.5468 6.44141 16.2695C6.58594 15.9921 6.80859 15.5937 6.9375 15.3906C7.06641 15.1875 7.37109 14.746 7.61719 14.414C7.86328 14.082 8.17969 13.6601 8.32031 13.4804C8.48047 13.2773 8.64062 13.1132 8.75 13.0507C8.91406 12.957 8.95312 12.9492 9.31641 12.9648C9.53125 12.9726 9.83984 12.9765 10 12.9765C10.1602 12.9765 10.4688 12.9726 10.6875 12.9648C11.0664 12.9492 11.0859 12.9531 11.2734 13.0664C11.4297 13.164 11.5938 13.3593 12.1367 14.082C12.5039 14.5781 12.918 15.1562 13.0508 15.371C13.1875 15.5859 13.4141 15.9921 13.5586 16.2695C13.7031 16.5468 13.918 17.0234 14.0352 17.3242C14.1562 17.625 14.2695 17.9531 14.293 18.0585C14.3164 18.1601 14.3438 18.2421 14.3555 18.2421C14.3672 18.2421 14.5039 18.1679 14.6602 18.082C14.8125 17.9921 15.1016 17.8085 15.293 17.6757C15.4844 17.5429 15.8125 17.2929 16.0156 17.121C16.2188 16.9492 16.4102 16.7851 16.4375 16.7539C16.4766 16.707 16.4062 16.6406 16.0273 16.3476C15.7734 16.1562 15.332 15.7656 15.043 15.4882C14.7578 15.2109 14.3789 14.8125 14.2109 14.6093C14.0391 14.4062 13.6328 13.871 13.3125 13.4179C12.9883 12.9648 12.6797 12.5195 12.625 12.4218C12.5586 12.3046 12.5195 12.164 12.5078 12.0117C12.4922 11.8046 12.5039 11.7382 12.6289 11.4648C12.707 11.2929 12.7969 11.0742 12.832 10.9765C12.8672 10.8789 12.9297 10.6328 12.9727 10.4296C13.0195 10.1992 13.082 10.0078 13.1406 9.92183C13.1953 9.84761 13.3047 9.73823 13.3867 9.67964C13.4688 9.61714 13.9375 9.43355 14.4531 9.25776C14.957 9.08198 15.6367 8.87104 15.957 8.78901C16.2812 8.70308 16.7617 8.60151 17.0312 8.55854C17.3008 8.51558 17.7305 8.46089 17.9883 8.43745C18.2461 8.41792 18.6211 8.39839 18.8203 8.39839C19.082 8.39839 19.1797 8.38667 19.1797 8.35151C19.1797 8.32417 19.1367 8.11714 19.0859 7.89058C19.0352 7.66401 18.9297 7.28901 18.8516 7.05073C18.7695 6.81245 18.6367 6.45698 18.5508 6.26167C18.4688 6.06245 18.3906 5.89839 18.3789 5.89839C18.3672 5.89839 18.2227 5.99604 18.0586 6.11714C17.8906 6.23823 17.5938 6.43354 17.4023 6.55464C17.2109 6.67182 16.8594 6.87104 16.6211 6.99214C16.3828 7.11323 16.0312 7.27729 15.8398 7.35932C15.6484 7.43745 15.3125 7.56636 15.0977 7.64058C14.8828 7.7187 14.332 7.89058 13.8789 8.0312C13.4219 8.16792 13 8.2812 12.9414 8.2812C12.8789 8.2812 12.7461 8.25776 12.6367 8.22651C12.4883 8.18354 12.3555 8.0937 12.0898 7.85542C11.8984 7.68354 11.6055 7.46479 11.4453 7.37495C11.2852 7.28511 11.0938 7.17182 11.0273 7.12104C10.9531 7.07026 10.8516 6.93354 10.793 6.80854L10.6836 6.58198C10.6602 4.74995 10.6758 4.05464 10.7031 3.73042C10.7266 3.42964 10.7812 2.98042 10.8242 2.73432C10.8672 2.48823 10.9453 2.0937 11.0039 1.85542C11.0586 1.62104 11.1562 1.2812 11.2148 1.10542C11.3008 0.863229 11.3164 0.777292 11.2812 0.761667C11.2539 0.753854 11.0391 0.72651 10.8008 0.703073C10.5625 0.683542 10.168 0.667917 9.92188 0.667917C9.67578 0.671823 9.3125 0.691354 9.12109 0.706979C8.92969 0.72651 8.74609 0.749948 8.72266 0.761667H8.71875ZM6.5 1.35151C6.26172 1.44917 5.88672 1.62495 5.66016 1.74604C5.43359 1.86323 5.05859 2.08979 4.82031 2.24604C4.58594 2.4062 4.22266 2.67182 4.01953 2.8437C3.81641 3.01557 3.48828 3.32026 3.29688 3.51948C3.10156 3.72261 2.82812 4.02729 2.69141 4.19917C2.55469 4.37104 2.32812 4.68745 2.1875 4.89839L1.92969 5.28511C2.11328 5.42964 2.29297 5.55854 2.44922 5.66401C2.60156 5.77339 2.74219 5.85151 2.76172 5.8437C2.77734 5.83589 2.85547 5.7187 2.94141 5.58198C3.02344 5.44526 3.21094 5.17182 3.35547 4.98042C3.5 4.78901 3.76562 4.47261 3.94531 4.2812C4.125 4.08979 4.44141 3.79292 4.64453 3.62495C4.84766 3.45307 5.18359 3.20307 5.38672 3.07026C5.58984 2.93745 5.90625 2.74604 6.08984 2.64839C6.27344 2.54682 6.625 2.38667 6.87109 2.2851C7.11719 2.18354 7.53906 2.03901 7.80859 1.96479C8.07812 1.89448 8.30078 1.82807 8.30859 1.82417C8.3125 1.82026 8.25 1.61323 8.17188 1.36714C8.05078 1.00385 8.00781 0.917917 7.94531 0.910104C7.90234 0.906198 7.65625 0.960885 7.39844 1.03901C7.14062 1.11323 6.73828 1.25776 6.5 1.35151ZM11.7969 1.42573C11.7305 1.64057 11.6797 1.82026 11.6875 1.82417C11.6914 1.82807 11.8984 1.88667 12.1445 1.95307C12.3906 2.02339 12.7773 2.14839 13.0039 2.23823C13.2305 2.32417 13.5898 2.48823 13.8047 2.5976C14.0195 2.70698 14.3789 2.91792 14.6016 3.07026C14.8242 3.2187 15.168 3.47261 15.3633 3.63667C15.5586 3.80073 15.8672 4.08979 16.0469 4.2812C16.2266 4.47261 16.4922 4.78901 16.6367 4.98042C16.7812 5.17573 16.9688 5.44526 17.0508 5.58198C17.1367 5.7187 17.2188 5.83979 17.2422 5.84761C17.2656 5.85542 17.4531 5.73823 17.6641 5.58589C17.8711 5.43745 18.043 5.30073 18.043 5.28511C18.043 5.26557 17.9102 5.06245 17.7539 4.82417C17.5938 4.58979 17.3242 4.22651 17.1523 4.02339C16.9805 3.82026 16.6758 3.49214 16.4766 3.30073C16.2734 3.10542 15.9688 2.83198 15.7969 2.69526C15.625 2.55854 15.3164 2.33979 15.1133 2.20307C14.9102 2.07026 14.5586 1.86323 14.332 1.74604C14.1055 1.62495 13.7305 1.44917 13.4922 1.35151C13.2539 1.25776 12.8477 1.11323 12.5859 1.03901C12.3203 0.960885 12.0781 0.898385 12.0469 0.898385C12.0156 0.898385 11.9727 0.929635 11.9531 0.968698C11.9336 1.00385 11.8633 1.21089 11.7969 1.42573ZM7.86719 2.64448C7.67578 2.69917 7.38281 2.79682 7.22266 2.85932C7.0625 2.92573 6.76172 3.05854 6.55859 3.16011C6.35547 3.26167 6.02734 3.44917 5.83594 3.57417C5.64453 3.69917 5.37109 3.89057 5.23047 4.00386C5.08984 4.11323 4.86328 4.30854 4.72656 4.43745C4.58984 4.56245 4.33594 4.83589 4.16797 5.03901C3.99609 5.24214 3.74219 5.58198 3.60547 5.79292C3.46875 5.99995 3.35547 6.18354 3.35547 6.20307C3.35156 6.2187 3.55859 6.33198 3.8125 6.45307C4.06641 6.57417 4.50391 6.76167 4.78125 6.87104C5.0625 6.98432 5.63281 7.17964 6.05078 7.30854C6.46875 7.43745 6.87109 7.56245 6.94141 7.58198C7.00781 7.60151 7.10547 7.60542 7.15625 7.5937C7.20312 7.57807 7.34766 7.4687 7.47656 7.3437C7.60547 7.22261 7.84375 7.03511 8.00391 6.92964C8.16406 6.82417 8.35156 6.71479 8.41406 6.69136C8.48047 6.66401 8.55859 6.5937 8.58984 6.53901C8.64062 6.44917 8.64844 6.22261 8.64844 5.16011C8.64453 4.41792 8.625 3.72261 8.59766 3.49604C8.57031 3.2812 8.53516 2.9687 8.51172 2.80464C8.48828 2.5937 8.46094 2.49995 8.42578 2.50385C8.39844 2.50776 8.33984 2.51557 8.29688 2.52729C8.25391 2.5351 8.05859 2.58979 7.86719 2.64448ZM11.3945 3.49604C11.3672 3.72261 11.3477 4.41792 11.3438 5.16011C11.3438 6.22261 11.3516 6.44917 11.4023 6.53901C11.4336 6.5937 11.5156 6.66401 11.5781 6.69136C11.6406 6.71479 11.8281 6.82417 11.9883 6.92964C12.1484 7.03511 12.3867 7.22261 12.5156 7.3437C12.6445 7.4687 12.793 7.58198 12.8477 7.59761C12.918 7.61323 13.1953 7.54683 13.7852 7.36323C14.2461 7.2187 14.8633 7.00776 15.1523 6.89448C15.4414 6.7812 15.8945 6.58589 16.1602 6.46089C16.4219 6.33589 16.6367 6.21479 16.6367 6.19136C16.6367 6.17182 16.5234 5.98432 16.3867 5.7812C16.25 5.57807 15.9961 5.24214 15.8242 5.03901C15.6562 4.83589 15.4023 4.56245 15.2656 4.43745C15.1289 4.30854 14.9023 4.11323 14.7617 4.00386C14.6211 3.89057 14.3594 3.70307 14.1758 3.58198C13.9922 3.46479 13.668 3.27729 13.4531 3.17182C13.2383 3.06245 12.9023 2.91401 12.7109 2.83589C12.5195 2.76167 12.1836 2.6562 11.9688 2.60151C11.7539 2.54292 11.5664 2.49995 11.5547 2.49995C11.5391 2.49995 11.5078 2.63667 11.4844 2.80464C11.4609 2.9687 11.4219 3.2812 11.3945 3.49604ZM0.679688 9.48433C0.664062 9.7148 0.660156 10.1328 0.675781 10.4101C0.6875 10.6875 0.726562 11.1015 0.761719 11.3281C0.792969 11.5546 0.878906 11.9765 0.949219 12.2656C1.02344 12.5546 1.14453 12.9687 1.22656 13.1835C1.30469 13.3984 1.48828 13.8203 1.63672 14.121C1.78125 14.4218 2.04297 14.8789 2.21484 15.1367C2.38672 15.3945 2.625 15.7226 2.74609 15.871C2.86719 16.0156 2.99219 16.1406 3.02344 16.1523C3.05469 16.164 3.22266 16.0703 3.39844 15.9492C3.57031 15.8242 3.73828 15.6953 3.76953 15.664C3.81641 15.6132 3.80469 15.582 3.67578 15.4296C3.59375 15.332 3.42188 15.1132 3.29297 14.9414C3.16406 14.7695 2.96484 14.4687 2.84766 14.2773C2.73047 14.0859 2.55078 13.7421 2.44531 13.5156C2.33594 13.289 2.17578 12.875 2.08594 12.5976C1.99219 12.3203 1.88281 11.9062 1.83594 11.6796C1.79297 11.4531 1.73438 11.0937 1.71094 10.8789C1.68359 10.664 1.67188 10.1679 1.67969 9.7773L1.69531 9.06245H0.707031L0.679688 9.48433ZM18.3086 9.7773C18.3203 10.1875 18.3086 10.6562 18.2812 10.8828C18.2578 11.0976 18.2031 11.457 18.1562 11.6835C18.1133 11.9062 18 12.3203 17.9102 12.6015C17.8164 12.8789 17.6562 13.2929 17.5508 13.5195C17.4453 13.7421 17.2617 14.0859 17.1445 14.2812C17.0273 14.4726 16.8281 14.7734 16.6992 14.9453C16.5742 15.1132 16.4023 15.3359 16.3203 15.4335C16.1875 15.5859 16.1758 15.6132 16.2227 15.6679C16.2539 15.6992 16.4219 15.8242 16.5938 15.9492C16.7695 16.0742 16.9375 16.164 16.9688 16.1562C17.0039 16.1445 17.125 16.0156 17.2461 15.871C17.3672 15.7265 17.6055 15.3984 17.7773 15.1406C17.9492 14.8789 18.2109 14.4218 18.3594 14.125C18.5039 13.8242 18.6914 13.4023 18.7695 13.1875C18.8477 12.9726 18.9727 12.5585 19.043 12.2695C19.1133 11.9765 19.1992 11.5546 19.2344 11.332C19.2656 11.1054 19.3047 10.6914 19.3203 10.414C19.332 10.1328 19.332 9.7148 19.3203 9.48433L19.293 9.06636H18.293L18.3086 9.7773ZM2.33984 10.0703C2.33984 10.3515 2.36328 10.7851 2.39453 11.0273C2.42578 11.2656 2.50391 11.6679 2.56641 11.914C2.63281 12.1601 2.75 12.5312 2.82812 12.7343C2.91016 12.9375 3.04297 13.2421 3.125 13.4101C3.20703 13.5742 3.34766 13.8281 3.4375 13.9765C3.52734 14.121 3.71875 14.3984 3.86328 14.5898C4.00781 14.7812 4.17969 14.9921 4.23828 15.0507L4.35156 15.1601C5 14.4765 5.32031 14.1093 5.48438 13.9062C5.64844 13.7031 6.01562 13.1992 6.30859 12.7929C6.61719 12.3593 6.83203 12.0156 6.83203 11.9648C6.83203 11.914 6.78125 11.7734 6.71875 11.6523C6.65625 11.5273 6.5625 11.2851 6.50781 11.1132C6.45313 10.9414 6.39844 10.7226 6.38281 10.625C6.37109 10.5273 6.33984 10.4062 6.32031 10.3515C6.30078 10.2968 6.24609 10.2304 6.19531 10.207C6.14844 10.1796 5.93359 10.0976 5.71875 10.0195C5.50391 9.94526 5.07031 9.80464 4.76172 9.70308C4.44922 9.60542 3.99219 9.47651 3.74609 9.41401C3.49609 9.35151 3.10156 9.26558 2.86328 9.2187C2.625 9.17573 2.42188 9.14058 2.41016 9.14058C2.39844 9.14058 2.375 9.23433 2.36328 9.34761C2.35156 9.45698 2.33984 9.78511 2.33984 10.0703ZM16.9492 9.26167C16.7227 9.30464 16.3633 9.38667 16.1484 9.43745C15.9336 9.49214 15.3516 9.66792 14.8594 9.83198C14.3633 9.99214 13.9023 10.1562 13.832 10.1914C13.7617 10.2265 13.6914 10.2812 13.6797 10.3125C13.668 10.3437 13.6289 10.5195 13.5898 10.7031C13.5508 10.8867 13.457 11.1953 13.375 11.3867C13.2969 11.5781 13.2109 11.7812 13.1875 11.8359C13.168 11.8906 13.1602 11.9765 13.1719 12.0312C13.1875 12.0859 13.4375 12.4648 13.7305 12.871C14.0234 13.2773 14.4141 13.7968 14.5977 14.0234C14.7852 14.246 15.0938 14.5937 15.2891 14.7968C15.6289 15.1445 15.6406 15.1562 15.7109 15.0898C15.7539 15.0507 15.8945 14.8789 16.0312 14.707C16.1641 14.5351 16.3711 14.246 16.4844 14.0625C16.6016 13.8789 16.7773 13.5625 16.875 13.3593C16.9766 13.1562 17.1211 12.8164 17.1992 12.6093C17.2734 12.3984 17.3828 12.0468 17.4375 11.8281C17.4922 11.6054 17.5625 11.2265 17.5938 10.9882C17.625 10.746 17.6523 10.3242 17.6523 10.0507C17.6523 9.77339 17.6406 9.45698 17.6289 9.34761C17.6172 9.23433 17.5977 9.14448 17.582 9.14448C17.5664 9.14839 17.5078 9.16011 17.457 9.16792C17.4023 9.17573 17.1719 9.2187 16.9492 9.26167ZM8.46875 14.375C8.20703 14.7304 7.89062 15.1679 7.76953 15.3515C7.64844 15.5351 7.45312 15.8437 7.33984 16.0351C7.22656 16.2265 7.06641 16.5234 6.98047 16.6875L6.83203 16.9921C7.45312 17.2304 7.83203 17.3515 8.08203 17.4179C8.32812 17.4804 8.67969 17.5546 8.86328 17.5859C9.05859 17.6171 9.51953 17.6367 9.99609 17.6367C10.4727 17.6367 10.9297 17.6171 11.1289 17.5859C11.3086 17.5546 11.6602 17.4804 11.9102 17.4179C12.1562 17.3515 12.5391 17.2304 12.7578 17.1445L13.1602 16.9921C12.9258 16.5234 12.7617 16.2265 12.6484 16.0351C12.5352 15.8437 12.3438 15.5351 12.2188 15.3515C12.0977 15.1679 11.7734 14.7226 11.5 14.3554C11.2266 13.9882 10.9727 13.6679 10.9297 13.6406C10.8711 13.6054 10.7617 13.6015 10.4141 13.6406C10.0781 13.6757 9.88672 13.6757 9.59375 13.6406C9.38672 13.6132 9.19141 13.5937 9.16406 13.5937C9.13672 13.5937 9.07812 13.625 9.03125 13.664C8.98828 13.6992 8.73438 14.0195 8.46875 14.375ZM6.47656 17.789C6.44141 17.8984 6.37109 18.1093 6.32812 18.2617C6.26172 18.4765 6.25391 18.5429 6.29297 18.5625C6.32031 18.5781 6.55469 18.6679 6.8125 18.7656C7.07031 18.8593 7.5 18.9921 7.76953 19.0585C8.03516 19.121 8.45703 19.207 8.70703 19.246C9.03125 19.2929 9.39062 19.3125 9.99609 19.3125C10.6055 19.3125 10.957 19.2929 11.2852 19.2421C11.5312 19.207 11.8828 19.1406 12.0664 19.0976C12.2461 19.0546 12.5195 18.9843 12.6719 18.9414C12.8203 18.8945 13.125 18.7929 13.3438 18.707C13.5664 18.625 13.7461 18.5507 13.7461 18.5429C13.7461 18.539 13.7109 18.414 13.6641 18.2617C13.6172 18.1093 13.5469 17.8984 13.5039 17.7929L13.4297 17.5976C12.7812 17.8515 12.3906 17.9804 12.1445 18.0429C11.8945 18.1093 11.5273 18.1914 11.3242 18.2304C11.0312 18.2851 10.7461 18.2968 9.99609 18.2968C9.24609 18.2968 8.95703 18.2851 8.66797 18.2304C8.46094 18.1914 8.09375 18.1093 7.84766 18.0429C7.59766 17.9804 7.20703 17.8515 6.97266 17.7578L6.54688 17.5898L6.47656 17.789ZM9.98828 6.67964C10.0898 6.67964 10.1562 6.70698 10.2266 6.7812C10.3125 6.87104 10.3242 6.91401 10.3242 7.17573C10.3242 7.44526 10.3164 7.47651 10.2188 7.56245C10.1562 7.61714 10.0625 7.6562 9.99219 7.6562C9.92578 7.6562 9.83203 7.61714 9.76953 7.56245C9.66797 7.47651 9.66016 7.44526 9.66016 7.17573C9.66016 6.91792 9.67188 6.86714 9.75391 6.7812C9.82031 6.71089 9.89062 6.67964 9.98828 6.67964ZM9.97266 8.32417C10.0156 8.32026 10.1484 8.33979 10.2656 8.35933C10.3828 8.38276 10.5898 8.45308 10.7266 8.51558C10.8594 8.58198 11.0586 8.72261 11.1641 8.82808C11.2734 8.93745 11.4141 9.13276 11.4766 9.26948C11.543 9.4023 11.6133 9.62105 11.6328 9.75776C11.6589 9.91922 11.6589 10.082 11.6328 10.246C11.6133 10.3789 11.543 10.5976 11.4766 10.7343C11.4141 10.8671 11.2734 11.0664 11.1641 11.1718C11.0586 11.2812 10.8594 11.4218 10.7266 11.4843C10.5898 11.5507 10.3672 11.621 10.2266 11.6445C10.0469 11.6718 9.90625 11.6718 9.73828 11.6445C9.60938 11.621 9.39453 11.5468 9.26172 11.4843C9.125 11.4218 8.92969 11.2812 8.82031 11.1718C8.71484 11.0664 8.57422 10.8671 8.50781 10.7343C8.44531 10.5976 8.375 10.3828 8.35156 10.2539C8.32031 10.0859 8.32031 9.94526 8.34766 9.76558C8.37109 9.62495 8.44141 9.4023 8.50781 9.26948C8.57422 9.13276 8.71484 8.93745 8.82031 8.82808C8.92969 8.72261 9.125 8.58198 9.26172 8.51558C9.39453 8.44917 9.59375 8.38276 9.69922 8.36323C9.80859 8.3437 9.92969 8.32808 9.97266 8.32417ZM9.45703 9.16011C9.35938 9.2187 9.23828 9.33589 9.17188 9.44526C9.10938 9.54683 9.03906 9.71089 9.01562 9.81636C8.98828 9.93745 8.98828 10.0625 9.01562 10.1875C9.03516 10.289 9.10156 10.4453 9.16016 10.539C9.22266 10.6289 9.34766 10.7578 9.44531 10.8203C9.54297 10.8867 9.70312 10.957 9.80859 10.9765C9.93359 11.0039 10.0508 11.0039 10.1797 10.9765C10.2812 10.9531 10.4336 10.8945 10.5195 10.8437C10.6055 10.7929 10.7227 10.6835 10.7812 10.6015C10.8398 10.5195 10.9062 10.3984 10.9297 10.332C10.957 10.2695 10.9766 10.1171 10.9805 9.99995C10.9844 9.8437 10.957 9.72651 10.8789 9.56245C10.8203 9.43745 10.7188 9.29292 10.6484 9.24214C10.5781 9.18745 10.457 9.12104 10.3828 9.08979C10.3086 9.05854 10.1836 9.02339 10.1094 9.01167C10.0352 9.00386 9.89453 9.00776 9.79688 9.0273C9.69922 9.04683 9.54688 9.10933 9.45703 9.16011ZM7.12109 8.74995C7.19531 8.74995 7.35547 8.78511 7.47266 8.82808C7.58984 8.87104 7.71484 8.94526 7.74609 8.99604C7.77734 9.04292 7.80469 9.12886 7.80469 9.19136C7.80469 9.24995 7.76563 9.3437 7.71875 9.39839C7.66016 9.46089 7.58594 9.49995 7.51172 9.49995C7.44922 9.50386 7.29688 9.47261 7.17969 9.43745C7.0625 9.39839 6.92578 9.32417 6.87891 9.27339C6.82422 9.2187 6.78906 9.13276 6.79297 9.06245C6.79297 8.98823 6.83203 8.90229 6.88672 8.84761C6.95312 8.7812 7.02344 8.74995 7.12109 8.74995ZM12.8555 8.75386C12.9609 8.74995 13.0273 8.77729 13.0977 8.84761C13.1602 8.91011 13.1953 8.98823 13.1953 9.06245C13.1953 9.12886 13.1602 9.2187 13.1094 9.27339C13.0586 9.32417 12.9336 9.39448 12.8242 9.42964C12.7187 9.46479 12.5781 9.49214 12.5117 9.49214C12.4414 9.49605 12.3633 9.46089 12.3125 9.4062C12.2656 9.35542 12.2188 9.28511 12.207 9.24995C12.1914 9.21089 12.207 9.11714 12.2383 9.04292C12.2852 8.93354 12.3359 8.89058 12.5039 8.83198C12.6133 8.78901 12.7734 8.75386 12.8555 8.75386ZM8.40234 11.8359C8.47266 11.8359 8.57422 11.871 8.63672 11.914C8.72266 11.9765 8.74219 12.0234 8.74219 12.1484C8.74219 12.2734 8.71094 12.3476 8.58594 12.5C8.5 12.6093 8.38281 12.7148 8.32422 12.7382C8.24219 12.7656 8.18359 12.7656 8.10156 12.7265C8.03906 12.6992 7.96094 12.6171 7.92578 12.5507C7.86719 12.4335 7.86719 12.4101 7.92969 12.2968C7.96484 12.2265 8.05859 12.0937 8.13672 12.0039C8.24609 11.875 8.30859 11.8359 8.40234 11.8359ZM11.582 11.8359C11.6875 11.8359 11.7383 11.8671 11.8672 12.0234C11.9531 12.125 12.043 12.2656 12.0625 12.3359C12.0898 12.4296 12.0898 12.4882 12.0469 12.5703C12.0195 12.6289 11.9375 12.6992 11.8633 12.7304C11.7578 12.7734 11.7109 12.7734 11.6328 12.7382C11.5781 12.7109 11.4688 12.6015 11.3867 12.4882C11.2852 12.3476 11.2422 12.2421 11.2383 12.1406C11.2344 12.0273 11.2578 11.9804 11.3438 11.9179C11.4023 11.871 11.5078 11.8359 11.582 11.8359Z" fill="#6D6C6C"/>
</g>
</g>
<defs>
<clipPath id="clip0_57_825">
<rect width="20" height="20" fill="white"/>
</clipPath>
<clipPath id="clip1_57_825">
<rect width="20" height="20" fill="white"/>
</clipPath>
</defs>
</svg>
