<svg width="21" height="20" viewBox="0 0 21 20" fill="none" xmlns="http://www.w3.org/2000/svg">
<mask id="path-1-inside-1_57_819" fill="white">
<path fill-rule="evenodd" clip-rule="evenodd" d="M10.805 0C10.9612 0 11.0276 0.0195312 11.137 0.109375C11.2112 0.171875 11.5198 0.570312 11.8167 1C12.1175 1.42578 12.4182 1.84375 12.4807 1.92969C12.5472 2.01172 12.6995 2.14844 12.8167 2.23438C12.9378 2.32031 13.1487 2.42188 13.305 2.46875C13.5159 2.53125 13.6526 2.54688 13.9104 2.53125C14.2112 2.51953 14.3401 2.48047 15.2581 2.15234C16.1096 1.84766 16.2971 1.79297 16.43 1.8125C16.5159 1.82422 16.6253 1.86328 16.6761 1.89453C16.7229 1.92578 16.7932 2 16.8323 2.05859C16.8909 2.15234 16.9026 2.3125 16.9378 4.78516L17.0667 5.04688C17.1331 5.19531 17.2776 5.40625 17.3831 5.51562C17.4886 5.62891 17.6761 5.77734 17.8011 5.84766C17.93 5.91406 18.4573 6.09375 18.9886 6.25C19.5159 6.40625 19.9925 6.55469 20.055 6.58594C20.1136 6.61719 20.1956 6.6875 20.2386 6.74609C20.2815 6.80859 20.3284 6.90625 20.3401 6.97266C20.3518 7.03516 20.3518 7.14062 20.3401 7.20703C20.3284 7.27344 20.0237 7.71875 19.6331 8.24219C19.2034 8.81641 18.9143 9.24219 18.8636 9.375C18.8089 9.51172 18.7737 9.70703 18.762 9.92188C18.7503 10.1484 18.7659 10.3281 18.8089 10.4883C18.844 10.6172 18.9221 10.8008 18.9807 10.8984C19.0432 10.9961 19.3636 11.4258 19.6956 11.8555C20.0901 12.3633 20.3128 12.6836 20.3323 12.7734C20.3479 12.8477 20.3518 12.9648 20.3401 13.0273C20.3284 13.0898 20.2854 13.1914 20.2386 13.25C20.1956 13.3125 20.1136 13.3828 20.055 13.4141C19.9925 13.4414 19.5081 13.6016 18.969 13.7695C18.4339 13.9336 17.887 14.125 17.762 14.1914C17.6331 14.2617 17.4456 14.4102 17.3401 14.5312C17.2307 14.6484 17.1057 14.832 17.055 14.9414C17.0081 15.0469 16.9456 15.2344 16.9221 15.3516C16.8909 15.5 16.8831 15.9062 16.9026 16.6797C16.9261 17.7617 16.9221 17.7969 16.844 17.918C16.7971 17.9883 16.7229 18.0742 16.6761 18.1055C16.6253 18.1367 16.5159 18.1758 16.43 18.1875C16.3011 18.207 16.0979 18.1484 15.2386 17.8516C14.3792 17.5547 14.1487 17.4883 13.8909 17.4727C13.6565 17.457 13.5198 17.4688 13.344 17.5195C13.2151 17.5547 13.0393 17.6211 12.9534 17.668C12.8675 17.7109 12.7112 17.8281 12.6097 17.9258C12.5042 18.0234 12.1604 18.4805 11.8479 18.9414C11.5315 19.4023 11.2112 19.8281 11.137 19.8906C11.0276 19.9766 10.9612 20 10.8167 20C10.6722 20 10.594 19.9766 10.4886 19.8906C10.4104 19.832 10.3206 19.7383 10.2932 19.6758C10.2542 19.5977 10.2386 19.3867 10.2386 18.8672C10.2386 18.4805 10.2268 18.1641 10.2112 18.1641C10.1917 18.1641 10.0667 18.2812 9.92606 18.4219C9.78543 18.5664 9.59403 18.7305 9.49637 18.793C9.387 18.8633 9.26981 18.9062 9.18387 18.9062C9.10965 18.9062 8.98465 18.875 8.91043 18.8359C8.83621 18.8008 8.73465 18.707 8.68387 18.6328C8.62528 18.543 8.59793 18.4375 8.59793 18.3281C8.59793 18.2383 8.62137 18.1172 8.65262 18.0547C8.68387 17.9961 9.05496 17.6055 10.2386 16.4258V15.6641C10.2386 15.2461 10.2268 14.8906 10.2112 14.8711C10.1917 14.8555 9.8909 15.1289 9.53543 15.4844C8.93778 16.0781 8.87918 16.125 8.71512 16.1484C8.5784 16.1719 8.50418 16.1602 8.38309 16.0977C8.28934 16.0508 8.19168 15.957 8.1409 15.8711C8.09403 15.7891 8.05496 15.6641 8.05106 15.5938C8.05106 15.5273 8.0745 15.4102 8.10575 15.3398C8.137 15.2734 8.62528 14.7539 10.2386 13.1445V12.0977C10.2386 11.4297 10.2229 11.0547 10.1995 11.0547C10.1761 11.0547 9.762 11.2852 9.26981 11.5703C8.78153 11.8516 8.37918 12.082 8.37528 12.0859C8.37137 12.0898 8.1995 12.7227 7.98856 13.4961C7.78153 14.2695 7.5784 14.9492 7.53934 15.0117C7.49637 15.0703 7.41434 15.1445 7.34793 15.1758C7.28153 15.207 7.15653 15.2344 7.06278 15.2344C6.96903 15.2344 6.84793 15.2031 6.76981 15.1562C6.7034 15.1133 6.60965 15.0195 6.56668 14.9531C6.52372 14.8828 6.48856 14.7656 6.48856 14.6992C6.48856 14.6289 6.5784 14.2305 6.68778 13.8203C6.79715 13.4062 6.89871 13.043 6.91434 13.0117C6.92996 12.9753 6.91694 12.9622 6.87528 12.9727C6.84012 12.9805 6.52372 13.1562 5.51981 13.7305L5.25809 14.7266C5.10965 15.2734 4.97684 15.7578 4.9534 15.8008C4.93387 15.8438 4.87137 15.9297 4.81278 15.9883C4.75809 16.0469 4.64481 16.1133 4.56668 16.1328C4.47293 16.1562 4.36356 16.1602 4.27372 16.1367C4.18387 16.1133 4.0745 16.043 4.00028 15.9609C3.92215 15.8789 3.85965 15.7617 3.84793 15.6758C3.83231 15.5703 3.85965 15.3906 3.94559 15.0781C4.012 14.832 4.06668 14.6172 4.06668 14.6016C4.06668 14.582 3.80887 14.7227 3.49247 14.9062C3.0745 15.1484 2.86356 15.25 2.73856 15.2656C2.62918 15.2773 2.512 15.2656 2.42997 15.2305C2.35575 15.1992 2.25418 15.1289 2.2034 15.0703C2.15653 15.0078 2.10184 14.8945 2.09012 14.8164C2.0745 14.7344 2.08622 14.6016 2.10965 14.5234C2.13309 14.4375 2.20731 14.332 2.28153 14.2734C2.34793 14.2188 2.6409 14.0352 2.92997 13.8711C3.21512 13.707 3.45731 13.5664 3.46512 13.5547C3.46903 13.543 3.25418 13.4727 2.98075 13.3984C2.60965 13.2969 2.46122 13.2344 2.37918 13.1562C2.32059 13.0937 2.25028 12.9805 2.22293 12.9023C2.19168 12.793 2.19168 12.7109 2.22293 12.5977C2.24637 12.5039 2.32059 12.3906 2.40262 12.3164C2.48465 12.2383 2.60575 12.1758 2.69168 12.1641C2.80106 12.1445 3.07059 12.2031 3.85184 12.418C4.41043 12.5703 4.89481 12.6953 4.92606 12.6914C4.95731 12.6914 5.27372 12.5234 5.62918 12.3203C5.98465 12.1133 6.28543 11.9336 6.30106 11.9219C6.32059 11.9062 5.97684 11.8008 5.53934 11.6836C5.10575 11.5664 4.70731 11.4492 4.65262 11.4258C4.59793 11.3984 4.50809 11.3242 4.4495 11.2539C4.387 11.1875 4.3284 11.0742 4.31668 11.0078C4.30497 10.9375 4.31278 10.8164 4.33231 10.7422C4.35575 10.668 4.43778 10.5469 4.512 10.4805C4.59403 10.4062 4.71512 10.3398 4.80106 10.3281C4.91434 10.3086 5.25809 10.3867 6.37137 10.6836C7.3245 10.9375 7.81668 11.0508 7.85965 11.0312C7.89481 11.0117 8.30106 10.7773 8.7659 10.5078C9.23075 10.2383 9.61356 10.0117 9.61356 10C9.61356 9.98828 9.20731 9.74609 8.71512 9.46484C8.21903 9.17969 7.78934 8.94531 7.75809 8.94531C7.72684 8.94531 7.11356 9.10156 6.39872 9.29297C5.68778 9.48438 5.03934 9.65234 4.96512 9.66797C4.86356 9.68359 4.78153 9.66797 4.65262 9.60156C4.54715 9.54688 4.4495 9.45703 4.40262 9.375C4.35965 9.30078 4.3245 9.16797 4.3284 9.08203C4.3284 8.99609 4.36356 8.86328 4.41043 8.78906C4.4534 8.71484 4.53934 8.625 4.60184 8.58984C4.66043 8.55469 5.06668 8.43359 5.50418 8.31641C5.93778 8.19922 6.29325 8.09766 6.29325 8.08594C6.29325 8.07422 5.99637 7.89453 5.62918 7.6875C5.2659 7.47656 4.94168 7.30469 4.91434 7.30469C4.8909 7.30469 4.40262 7.42578 3.83231 7.57812C2.95731 7.80859 2.77762 7.84375 2.66043 7.8125C2.58622 7.79297 2.48075 7.74609 2.42606 7.70312C2.37137 7.66406 2.29715 7.55078 2.25809 7.45703C2.21122 7.34375 2.19559 7.24609 2.21512 7.16797C2.22684 7.10156 2.2659 7.00391 2.29325 6.94531C2.3245 6.88281 2.40653 6.80469 2.47293 6.76172C2.54325 6.72266 2.78934 6.63672 3.02372 6.57812C3.25418 6.51562 3.44168 6.45312 3.44168 6.4375C3.44168 6.41797 3.20731 6.27734 2.92215 6.11719C2.6409 5.95703 2.34793 5.78125 2.28153 5.72656C2.20731 5.66797 2.13309 5.5625 2.10965 5.48047C2.08622 5.39844 2.0745 5.26562 2.09012 5.1875C2.10184 5.10547 2.15653 4.99219 2.2034 4.93359C2.25418 4.87109 2.35575 4.80078 2.42997 4.76953C2.512 4.73438 2.62918 4.72266 2.73856 4.73438C2.86356 4.75 3.0745 4.85156 3.49247 5.09375C3.80887 5.27734 4.07059 5.42969 4.0745 5.42969C4.08231 5.42969 4.02762 5.20312 3.95731 4.92969C3.87137 4.60938 3.83231 4.39062 3.84793 4.30859C3.85965 4.23828 3.92997 4.11719 3.99637 4.03906C4.06668 3.96484 4.18778 3.88281 4.262 3.85938C4.33622 3.83594 4.46122 3.82812 4.53543 3.84375C4.60965 3.85547 4.72293 3.91016 4.78934 3.95703C4.85575 4.00781 4.92606 4.10156 4.9534 4.16406C4.98075 4.22656 5.11747 4.71875 5.262 5.25391C5.40262 5.79297 5.53543 6.24609 5.55497 6.26953C5.5784 6.29297 5.887 6.47656 6.24637 6.6875C6.60575 6.89453 6.90653 7.05469 6.91825 7.04688C6.92997 7.03516 6.83622 6.65625 6.70731 6.19922C6.53543 5.57031 6.48465 5.33594 6.50418 5.22656C6.5159 5.14062 6.5784 5.01953 6.65653 4.9375C6.72293 4.86328 6.84403 4.78125 6.91825 4.75781C6.99247 4.73828 7.11356 4.73047 7.18387 4.74219C7.25028 4.75391 7.36356 4.8125 7.42997 4.875C7.50028 4.93359 7.5745 5.02344 7.60184 5.07812C7.62918 5.13281 7.81278 5.79297 8.37528 7.91016L9.25028 8.41797C9.73465 8.69922 10.1526 8.92969 10.1839 8.9375C10.2307 8.94531 10.2386 8.78516 10.2386 6.85547L9.18778 5.80078C8.31278 4.92188 8.12918 4.71875 8.09403 4.58984C8.07059 4.50391 8.05887 4.38281 8.07059 4.31641C8.08231 4.25 8.14481 4.13281 8.20731 4.05469C8.28934 3.94922 8.37528 3.89453 8.49246 3.86328C8.61356 3.83203 8.69559 3.83203 8.81278 3.86719C8.93387 3.90234 9.10575 4.05078 9.5745 4.51562C9.90653 4.84375 10.1917 5.11719 10.2112 5.11719C10.2268 5.11719 10.2386 4.76953 10.2386 3.57422L9.49246 2.83203C9.08231 2.42188 8.71512 2.02344 8.67215 1.94531C8.63309 1.86328 8.59793 1.73828 8.59793 1.67188C8.59793 1.60156 8.637 1.47266 8.68778 1.39062C8.73465 1.30859 8.83621 1.20703 8.91043 1.16797C8.98465 1.125 9.10575 1.09375 9.17606 1.09375C9.24246 1.09375 9.34793 1.11328 9.41043 1.13672C9.46903 1.16016 9.66434 1.32812 9.84793 1.50781C10.0315 1.6875 10.1917 1.83594 10.2112 1.83594C10.2268 1.83594 10.2386 1.51953 10.2386 1.13281C10.2386 0.585938 10.2503 0.402344 10.2972 0.3125C10.3284 0.25 10.4143 0.152344 10.4847 0.0976562C10.5784 0.0234375 10.6565 0 10.805 0ZM11.4104 5.35156C11.8206 5.41406 12.0979 5.48828 12.2893 5.55078C12.4807 5.61719 12.7893 5.74609 12.9729 5.84375C13.1565 5.9375 13.4534 6.125 13.637 6.26172C13.8206 6.39844 14.0901 6.64063 14.2386 6.80078C14.3831 6.96094 14.5979 7.23047 14.7112 7.40234C14.8284 7.57422 14.9807 7.84766 15.055 8.00781C15.1292 8.16797 15.2307 8.41406 15.2737 8.55469C15.3206 8.69531 15.387 8.94922 15.4222 9.12109C15.469 9.33203 15.4886 9.61719 15.4886 10C15.4886 10.3945 15.469 10.668 15.4182 10.8984C15.3831 11.082 15.305 11.3633 15.2503 11.5234C15.1956 11.6836 15.0823 11.9492 15.0042 12.1094C14.9221 12.2695 14.7659 12.5312 14.6565 12.6875C14.5472 12.8398 14.3401 13.0938 14.1956 13.2461C14.0471 13.3984 13.7972 13.625 13.637 13.7461C13.4768 13.8672 13.1839 14.0469 12.9925 14.1484C12.8011 14.25 12.4807 14.3828 12.2893 14.4492C12.0979 14.5117 11.8206 14.5859 11.6761 14.6055L11.4104 14.6484L11.4065 17.5195C11.6214 17.2305 11.7932 17.0586 11.93 16.9492C12.0628 16.8438 12.3323 16.6758 12.5237 16.582C12.7151 16.4883 13.0042 16.3867 13.1604 16.3516C13.3128 16.3164 13.594 16.2891 13.7854 16.2891C13.9846 16.2891 14.2542 16.3203 14.4378 16.3633C14.6096 16.4062 14.9534 16.5117 15.1995 16.5977C15.4456 16.6875 15.6643 16.7578 15.6878 16.7578C15.7112 16.7578 15.7268 16.4766 15.7268 15.9844C15.7268 15.3555 15.7386 15.168 15.7971 14.9609C15.8401 14.8203 15.9182 14.6016 15.9768 14.4727C16.0354 14.3438 16.1448 14.1523 16.219 14.043C16.2893 13.9375 16.4417 13.7578 16.5471 13.6484C16.6565 13.5391 16.8831 13.3594 17.055 13.2461C17.305 13.0859 17.5081 13 18.0628 12.8203C18.4417 12.6992 18.7542 12.5898 18.7542 12.5781C18.7542 12.5664 18.6409 12.4102 18.4964 12.2266C18.3557 12.043 18.1682 11.7891 18.0784 11.6602C17.9925 11.5312 17.8714 11.3203 17.8128 11.1914C17.7581 11.0625 17.68 10.8359 17.6409 10.6836C17.6018 10.5156 17.5745 10.2578 17.5745 10.0195C17.5745 9.78516 17.6018 9.51953 17.6409 9.35547C17.6761 9.20703 17.7737 8.94141 17.8557 8.76953C17.9417 8.59766 18.1761 8.23438 18.3792 7.96094C18.5862 7.68359 18.7542 7.44922 18.7542 7.43359C18.7542 7.41406 18.5003 7.32812 18.1878 7.23828C17.8753 7.14453 17.512 7.01562 17.3792 6.95312C17.2425 6.88672 17.0159 6.74609 16.8714 6.64062C16.7229 6.53125 16.512 6.33203 16.4026 6.19531C16.2893 6.05859 16.1292 5.80859 16.0432 5.64062C15.9612 5.46875 15.8596 5.19922 15.8206 5.03906C15.7581 4.80078 15.7464 4.60156 15.7464 3.99609C15.7464 3.58203 15.7346 3.24219 15.719 3.24219C15.6995 3.24219 15.469 3.32031 15.1995 3.41797C14.93 3.51562 14.5784 3.62109 14.4182 3.65625C14.1995 3.70703 14.0042 3.71484 13.6565 3.70312C13.2854 3.6875 13.1292 3.66016 12.8948 3.57812C12.7347 3.51953 12.4807 3.40234 12.3284 3.3125C12.1761 3.22266 11.9104 3.00781 11.7307 2.82812L11.4026 2.50391L11.4104 5.35156ZM11.4104 13.4766C11.7893 13.3828 12.0315 13.2969 12.1917 13.2305C12.3557 13.1602 12.5901 13.0312 12.719 12.9492C12.8479 12.8633 13.0823 12.668 13.2425 12.5195C13.3987 12.3672 13.6214 12.1055 13.7347 11.9336C13.8518 11.7617 13.9925 11.5078 14.0472 11.3672C14.1057 11.2266 14.1878 10.9805 14.2268 10.8203C14.2698 10.6602 14.3128 10.3672 14.3284 10.1758C14.344 9.92969 14.3323 9.71484 14.2854 9.46094C14.2542 9.26172 14.18 8.97266 14.1253 8.81641C14.0706 8.66016 13.9651 8.42969 13.8948 8.30078C13.8245 8.17188 13.6917 7.97266 13.6018 7.85938C13.5159 7.74609 13.3675 7.58203 13.2776 7.49219C13.1839 7.40234 13.0042 7.25391 12.8753 7.15625C12.7464 7.0625 12.5276 6.92578 12.387 6.85547C12.2503 6.78516 12.0472 6.69922 11.9378 6.66797C11.8323 6.63281 11.6682 6.58594 11.5706 6.56641L11.4026 6.53125L11.4104 13.4766Z"/>
</mask>
<path fill-rule="evenodd" clip-rule="evenodd" d="M10.805 0C10.9612 0 11.0276 0.0195312 11.137 0.109375C11.2112 0.171875 11.5198 0.570312 11.8167 1C12.1175 1.42578 12.4182 1.84375 12.4807 1.92969C12.5472 2.01172 12.6995 2.14844 12.8167 2.23438C12.9378 2.32031 13.1487 2.42188 13.305 2.46875C13.5159 2.53125 13.6526 2.54688 13.9104 2.53125C14.2112 2.51953 14.3401 2.48047 15.2581 2.15234C16.1096 1.84766 16.2971 1.79297 16.43 1.8125C16.5159 1.82422 16.6253 1.86328 16.6761 1.89453C16.7229 1.92578 16.7932 2 16.8323 2.05859C16.8909 2.15234 16.9026 2.3125 16.9378 4.78516L17.0667 5.04688C17.1331 5.19531 17.2776 5.40625 17.3831 5.51562C17.4886 5.62891 17.6761 5.77734 17.8011 5.84766C17.93 5.91406 18.4573 6.09375 18.9886 6.25C19.5159 6.40625 19.9925 6.55469 20.055 6.58594C20.1136 6.61719 20.1956 6.6875 20.2386 6.74609C20.2815 6.80859 20.3284 6.90625 20.3401 6.97266C20.3518 7.03516 20.3518 7.14062 20.3401 7.20703C20.3284 7.27344 20.0237 7.71875 19.6331 8.24219C19.2034 8.81641 18.9143 9.24219 18.8636 9.375C18.8089 9.51172 18.7737 9.70703 18.762 9.92188C18.7503 10.1484 18.7659 10.3281 18.8089 10.4883C18.844 10.6172 18.9221 10.8008 18.9807 10.8984C19.0432 10.9961 19.3636 11.4258 19.6956 11.8555C20.0901 12.3633 20.3128 12.6836 20.3323 12.7734C20.3479 12.8477 20.3518 12.9648 20.3401 13.0273C20.3284 13.0898 20.2854 13.1914 20.2386 13.25C20.1956 13.3125 20.1136 13.3828 20.055 13.4141C19.9925 13.4414 19.5081 13.6016 18.969 13.7695C18.4339 13.9336 17.887 14.125 17.762 14.1914C17.6331 14.2617 17.4456 14.4102 17.3401 14.5312C17.2307 14.6484 17.1057 14.832 17.055 14.9414C17.0081 15.0469 16.9456 15.2344 16.9221 15.3516C16.8909 15.5 16.8831 15.9062 16.9026 16.6797C16.9261 17.7617 16.9221 17.7969 16.844 17.918C16.7971 17.9883 16.7229 18.0742 16.6761 18.1055C16.6253 18.1367 16.5159 18.1758 16.43 18.1875C16.3011 18.207 16.0979 18.1484 15.2386 17.8516C14.3792 17.5547 14.1487 17.4883 13.8909 17.4727C13.6565 17.457 13.5198 17.4688 13.344 17.5195C13.2151 17.5547 13.0393 17.6211 12.9534 17.668C12.8675 17.7109 12.7112 17.8281 12.6097 17.9258C12.5042 18.0234 12.1604 18.4805 11.8479 18.9414C11.5315 19.4023 11.2112 19.8281 11.137 19.8906C11.0276 19.9766 10.9612 20 10.8167 20C10.6722 20 10.594 19.9766 10.4886 19.8906C10.4104 19.832 10.3206 19.7383 10.2932 19.6758C10.2542 19.5977 10.2386 19.3867 10.2386 18.8672C10.2386 18.4805 10.2268 18.1641 10.2112 18.1641C10.1917 18.1641 10.0667 18.2812 9.92606 18.4219C9.78543 18.5664 9.59403 18.7305 9.49637 18.793C9.387 18.8633 9.26981 18.9062 9.18387 18.9062C9.10965 18.9062 8.98465 18.875 8.91043 18.8359C8.83621 18.8008 8.73465 18.707 8.68387 18.6328C8.62528 18.543 8.59793 18.4375 8.59793 18.3281C8.59793 18.2383 8.62137 18.1172 8.65262 18.0547C8.68387 17.9961 9.05496 17.6055 10.2386 16.4258V15.6641C10.2386 15.2461 10.2268 14.8906 10.2112 14.8711C10.1917 14.8555 9.8909 15.1289 9.53543 15.4844C8.93778 16.0781 8.87918 16.125 8.71512 16.1484C8.5784 16.1719 8.50418 16.1602 8.38309 16.0977C8.28934 16.0508 8.19168 15.957 8.1409 15.8711C8.09403 15.7891 8.05496 15.6641 8.05106 15.5938C8.05106 15.5273 8.0745 15.4102 8.10575 15.3398C8.137 15.2734 8.62528 14.7539 10.2386 13.1445V12.0977C10.2386 11.4297 10.2229 11.0547 10.1995 11.0547C10.1761 11.0547 9.762 11.2852 9.26981 11.5703C8.78153 11.8516 8.37918 12.082 8.37528 12.0859C8.37137 12.0898 8.1995 12.7227 7.98856 13.4961C7.78153 14.2695 7.5784 14.9492 7.53934 15.0117C7.49637 15.0703 7.41434 15.1445 7.34793 15.1758C7.28153 15.207 7.15653 15.2344 7.06278 15.2344C6.96903 15.2344 6.84793 15.2031 6.76981 15.1562C6.7034 15.1133 6.60965 15.0195 6.56668 14.9531C6.52372 14.8828 6.48856 14.7656 6.48856 14.6992C6.48856 14.6289 6.5784 14.2305 6.68778 13.8203C6.79715 13.4062 6.89871 13.043 6.91434 13.0117C6.92996 12.9753 6.91694 12.9622 6.87528 12.9727C6.84012 12.9805 6.52372 13.1562 5.51981 13.7305L5.25809 14.7266C5.10965 15.2734 4.97684 15.7578 4.9534 15.8008C4.93387 15.8438 4.87137 15.9297 4.81278 15.9883C4.75809 16.0469 4.64481 16.1133 4.56668 16.1328C4.47293 16.1562 4.36356 16.1602 4.27372 16.1367C4.18387 16.1133 4.0745 16.043 4.00028 15.9609C3.92215 15.8789 3.85965 15.7617 3.84793 15.6758C3.83231 15.5703 3.85965 15.3906 3.94559 15.0781C4.012 14.832 4.06668 14.6172 4.06668 14.6016C4.06668 14.582 3.80887 14.7227 3.49247 14.9062C3.0745 15.1484 2.86356 15.25 2.73856 15.2656C2.62918 15.2773 2.512 15.2656 2.42997 15.2305C2.35575 15.1992 2.25418 15.1289 2.2034 15.0703C2.15653 15.0078 2.10184 14.8945 2.09012 14.8164C2.0745 14.7344 2.08622 14.6016 2.10965 14.5234C2.13309 14.4375 2.20731 14.332 2.28153 14.2734C2.34793 14.2188 2.6409 14.0352 2.92997 13.8711C3.21512 13.707 3.45731 13.5664 3.46512 13.5547C3.46903 13.543 3.25418 13.4727 2.98075 13.3984C2.60965 13.2969 2.46122 13.2344 2.37918 13.1562C2.32059 13.0937 2.25028 12.9805 2.22293 12.9023C2.19168 12.793 2.19168 12.7109 2.22293 12.5977C2.24637 12.5039 2.32059 12.3906 2.40262 12.3164C2.48465 12.2383 2.60575 12.1758 2.69168 12.1641C2.80106 12.1445 3.07059 12.2031 3.85184 12.418C4.41043 12.5703 4.89481 12.6953 4.92606 12.6914C4.95731 12.6914 5.27372 12.5234 5.62918 12.3203C5.98465 12.1133 6.28543 11.9336 6.30106 11.9219C6.32059 11.9062 5.97684 11.8008 5.53934 11.6836C5.10575 11.5664 4.70731 11.4492 4.65262 11.4258C4.59793 11.3984 4.50809 11.3242 4.4495 11.2539C4.387 11.1875 4.3284 11.0742 4.31668 11.0078C4.30497 10.9375 4.31278 10.8164 4.33231 10.7422C4.35575 10.668 4.43778 10.5469 4.512 10.4805C4.59403 10.4062 4.71512 10.3398 4.80106 10.3281C4.91434 10.3086 5.25809 10.3867 6.37137 10.6836C7.3245 10.9375 7.81668 11.0508 7.85965 11.0312C7.89481 11.0117 8.30106 10.7773 8.7659 10.5078C9.23075 10.2383 9.61356 10.0117 9.61356 10C9.61356 9.98828 9.20731 9.74609 8.71512 9.46484C8.21903 9.17969 7.78934 8.94531 7.75809 8.94531C7.72684 8.94531 7.11356 9.10156 6.39872 9.29297C5.68778 9.48438 5.03934 9.65234 4.96512 9.66797C4.86356 9.68359 4.78153 9.66797 4.65262 9.60156C4.54715 9.54688 4.4495 9.45703 4.40262 9.375C4.35965 9.30078 4.3245 9.16797 4.3284 9.08203C4.3284 8.99609 4.36356 8.86328 4.41043 8.78906C4.4534 8.71484 4.53934 8.625 4.60184 8.58984C4.66043 8.55469 5.06668 8.43359 5.50418 8.31641C5.93778 8.19922 6.29325 8.09766 6.29325 8.08594C6.29325 8.07422 5.99637 7.89453 5.62918 7.6875C5.2659 7.47656 4.94168 7.30469 4.91434 7.30469C4.8909 7.30469 4.40262 7.42578 3.83231 7.57812C2.95731 7.80859 2.77762 7.84375 2.66043 7.8125C2.58622 7.79297 2.48075 7.74609 2.42606 7.70312C2.37137 7.66406 2.29715 7.55078 2.25809 7.45703C2.21122 7.34375 2.19559 7.24609 2.21512 7.16797C2.22684 7.10156 2.2659 7.00391 2.29325 6.94531C2.3245 6.88281 2.40653 6.80469 2.47293 6.76172C2.54325 6.72266 2.78934 6.63672 3.02372 6.57812C3.25418 6.51562 3.44168 6.45312 3.44168 6.4375C3.44168 6.41797 3.20731 6.27734 2.92215 6.11719C2.6409 5.95703 2.34793 5.78125 2.28153 5.72656C2.20731 5.66797 2.13309 5.5625 2.10965 5.48047C2.08622 5.39844 2.0745 5.26562 2.09012 5.1875C2.10184 5.10547 2.15653 4.99219 2.2034 4.93359C2.25418 4.87109 2.35575 4.80078 2.42997 4.76953C2.512 4.73438 2.62918 4.72266 2.73856 4.73438C2.86356 4.75 3.0745 4.85156 3.49247 5.09375C3.80887 5.27734 4.07059 5.42969 4.0745 5.42969C4.08231 5.42969 4.02762 5.20312 3.95731 4.92969C3.87137 4.60938 3.83231 4.39062 3.84793 4.30859C3.85965 4.23828 3.92997 4.11719 3.99637 4.03906C4.06668 3.96484 4.18778 3.88281 4.262 3.85938C4.33622 3.83594 4.46122 3.82812 4.53543 3.84375C4.60965 3.85547 4.72293 3.91016 4.78934 3.95703C4.85575 4.00781 4.92606 4.10156 4.9534 4.16406C4.98075 4.22656 5.11747 4.71875 5.262 5.25391C5.40262 5.79297 5.53543 6.24609 5.55497 6.26953C5.5784 6.29297 5.887 6.47656 6.24637 6.6875C6.60575 6.89453 6.90653 7.05469 6.91825 7.04688C6.92997 7.03516 6.83622 6.65625 6.70731 6.19922C6.53543 5.57031 6.48465 5.33594 6.50418 5.22656C6.5159 5.14062 6.5784 5.01953 6.65653 4.9375C6.72293 4.86328 6.84403 4.78125 6.91825 4.75781C6.99247 4.73828 7.11356 4.73047 7.18387 4.74219C7.25028 4.75391 7.36356 4.8125 7.42997 4.875C7.50028 4.93359 7.5745 5.02344 7.60184 5.07812C7.62918 5.13281 7.81278 5.79297 8.37528 7.91016L9.25028 8.41797C9.73465 8.69922 10.1526 8.92969 10.1839 8.9375C10.2307 8.94531 10.2386 8.78516 10.2386 6.85547L9.18778 5.80078C8.31278 4.92188 8.12918 4.71875 8.09403 4.58984C8.07059 4.50391 8.05887 4.38281 8.07059 4.31641C8.08231 4.25 8.14481 4.13281 8.20731 4.05469C8.28934 3.94922 8.37528 3.89453 8.49246 3.86328C8.61356 3.83203 8.69559 3.83203 8.81278 3.86719C8.93387 3.90234 9.10575 4.05078 9.5745 4.51562C9.90653 4.84375 10.1917 5.11719 10.2112 5.11719C10.2268 5.11719 10.2386 4.76953 10.2386 3.57422L9.49246 2.83203C9.08231 2.42188 8.71512 2.02344 8.67215 1.94531C8.63309 1.86328 8.59793 1.73828 8.59793 1.67188C8.59793 1.60156 8.637 1.47266 8.68778 1.39062C8.73465 1.30859 8.83621 1.20703 8.91043 1.16797C8.98465 1.125 9.10575 1.09375 9.17606 1.09375C9.24246 1.09375 9.34793 1.11328 9.41043 1.13672C9.46903 1.16016 9.66434 1.32812 9.84793 1.50781C10.0315 1.6875 10.1917 1.83594 10.2112 1.83594C10.2268 1.83594 10.2386 1.51953 10.2386 1.13281C10.2386 0.585938 10.2503 0.402344 10.2972 0.3125C10.3284 0.25 10.4143 0.152344 10.4847 0.0976562C10.5784 0.0234375 10.6565 0 10.805 0ZM11.4104 5.35156C11.8206 5.41406 12.0979 5.48828 12.2893 5.55078C12.4807 5.61719 12.7893 5.74609 12.9729 5.84375C13.1565 5.9375 13.4534 6.125 13.637 6.26172C13.8206 6.39844 14.0901 6.64063 14.2386 6.80078C14.3831 6.96094 14.5979 7.23047 14.7112 7.40234C14.8284 7.57422 14.9807 7.84766 15.055 8.00781C15.1292 8.16797 15.2307 8.41406 15.2737 8.55469C15.3206 8.69531 15.387 8.94922 15.4222 9.12109C15.469 9.33203 15.4886 9.61719 15.4886 10C15.4886 10.3945 15.469 10.668 15.4182 10.8984C15.3831 11.082 15.305 11.3633 15.2503 11.5234C15.1956 11.6836 15.0823 11.9492 15.0042 12.1094C14.9221 12.2695 14.7659 12.5312 14.6565 12.6875C14.5472 12.8398 14.3401 13.0938 14.1956 13.2461C14.0471 13.3984 13.7972 13.625 13.637 13.7461C13.4768 13.8672 13.1839 14.0469 12.9925 14.1484C12.8011 14.25 12.4807 14.3828 12.2893 14.4492C12.0979 14.5117 11.8206 14.5859 11.6761 14.6055L11.4104 14.6484L11.4065 17.5195C11.6214 17.2305 11.7932 17.0586 11.93 16.9492C12.0628 16.8438 12.3323 16.6758 12.5237 16.582C12.7151 16.4883 13.0042 16.3867 13.1604 16.3516C13.3128 16.3164 13.594 16.2891 13.7854 16.2891C13.9846 16.2891 14.2542 16.3203 14.4378 16.3633C14.6096 16.4062 14.9534 16.5117 15.1995 16.5977C15.4456 16.6875 15.6643 16.7578 15.6878 16.7578C15.7112 16.7578 15.7268 16.4766 15.7268 15.9844C15.7268 15.3555 15.7386 15.168 15.7971 14.9609C15.8401 14.8203 15.9182 14.6016 15.9768 14.4727C16.0354 14.3438 16.1448 14.1523 16.219 14.043C16.2893 13.9375 16.4417 13.7578 16.5471 13.6484C16.6565 13.5391 16.8831 13.3594 17.055 13.2461C17.305 13.0859 17.5081 13 18.0628 12.8203C18.4417 12.6992 18.7542 12.5898 18.7542 12.5781C18.7542 12.5664 18.6409 12.4102 18.4964 12.2266C18.3557 12.043 18.1682 11.7891 18.0784 11.6602C17.9925 11.5312 17.8714 11.3203 17.8128 11.1914C17.7581 11.0625 17.68 10.8359 17.6409 10.6836C17.6018 10.5156 17.5745 10.2578 17.5745 10.0195C17.5745 9.78516 17.6018 9.51953 17.6409 9.35547C17.6761 9.20703 17.7737 8.94141 17.8557 8.76953C17.9417 8.59766 18.1761 8.23438 18.3792 7.96094C18.5862 7.68359 18.7542 7.44922 18.7542 7.43359C18.7542 7.41406 18.5003 7.32812 18.1878 7.23828C17.8753 7.14453 17.512 7.01562 17.3792 6.95312C17.2425 6.88672 17.0159 6.74609 16.8714 6.64062C16.7229 6.53125 16.512 6.33203 16.4026 6.19531C16.2893 6.05859 16.1292 5.80859 16.0432 5.64062C15.9612 5.46875 15.8596 5.19922 15.8206 5.03906C15.7581 4.80078 15.7464 4.60156 15.7464 3.99609C15.7464 3.58203 15.7346 3.24219 15.719 3.24219C15.6995 3.24219 15.469 3.32031 15.1995 3.41797C14.93 3.51562 14.5784 3.62109 14.4182 3.65625C14.1995 3.70703 14.0042 3.71484 13.6565 3.70312C13.2854 3.6875 13.1292 3.66016 12.8948 3.57812C12.7347 3.51953 12.4807 3.40234 12.3284 3.3125C12.1761 3.22266 11.9104 3.00781 11.7307 2.82812L11.4026 2.50391L11.4104 5.35156ZM11.4104 13.4766C11.7893 13.3828 12.0315 13.2969 12.1917 13.2305C12.3557 13.1602 12.5901 13.0312 12.719 12.9492C12.8479 12.8633 13.0823 12.668 13.2425 12.5195C13.3987 12.3672 13.6214 12.1055 13.7347 11.9336C13.8518 11.7617 13.9925 11.5078 14.0472 11.3672C14.1057 11.2266 14.1878 10.9805 14.2268 10.8203C14.2698 10.6602 14.3128 10.3672 14.3284 10.1758C14.344 9.92969 14.3323 9.71484 14.2854 9.46094C14.2542 9.26172 14.18 8.97266 14.1253 8.81641C14.0706 8.66016 13.9651 8.42969 13.8948 8.30078C13.8245 8.17188 13.6917 7.97266 13.6018 7.85938C13.5159 7.74609 13.3675 7.58203 13.2776 7.49219C13.1839 7.40234 13.0042 7.25391 12.8753 7.15625C12.7464 7.0625 12.5276 6.92578 12.387 6.85547C12.2503 6.78516 12.0472 6.69922 11.9378 6.66797C11.8323 6.63281 11.6682 6.58594 11.5706 6.56641L11.4026 6.53125L11.4104 13.4766Z" fill="#6D6C6C" stroke="white" stroke-width="0.4" mask="url(#path-1-inside-1_57_819)"/>
</svg>
